<svg xmlns="http://www.w3.org/2000/svg" viewBox="0 0 314.65 314.65"><path d="M157.33 0C70.58 0 0 70.58 0 157.33s70.58 157.32 157.33 157.32 157.32-70.57 157.32-157.32S244.08 0 157.33 0zm0 296.65C80.5 296.65 18 234.15 18 157.33S80.5 18 157.33 18s139.32 62.5 139.32 139.33-62.5 139.32-139.32 139.32z"/><path d="M157 92.17c21.11 0 23.61.09 31.95.47 7.71.35 11.9 1.64 14.68 2.72a26.1 26.1 0 0 1 15 15c1.08 2.78 2.37 7 2.72 14.68.38 8.34.47 10.84.47 32s-.09 23.61-.47 31.95c-.35 7.71-1.64 11.9-2.72 14.68a26.1 26.1 0 0 1-15 15c-2.78 1.08-7 2.37-14.68 2.72-8.33.38-10.84.47-31.95.47s-23.62-.09-31.95-.47c-7.71-.35-11.9-1.64-14.68-2.72a26.1 26.1 0 0 1-15-15c-1.08-2.78-2.37-7-2.72-14.68-.38-8.34-.47-10.84-.47-31.95s.09-23.61.47-31.95c.35-7.71 1.64-11.9 2.72-14.68a26.1 26.1 0 0 1 15-15c2.78-1.08 7-2.37 14.68-2.72 8.34-.38 10.84-.47 32-.47m0-14.24c-21.47 0-24.17.09-32.6.47s-14.17 1.72-19.2 3.68a40.45 40.45 0 0 0-23.17 23.07c-2 5-3.29 10.78-3.68 19.2s-.47 11.13-.47 32.6.09 24.17.47 32.6 1.72 14.17 3.68 19.2a40.45 40.45 0 0 0 23.12 23.12c5 2 10.78 3.29 19.2 3.68s11.13.47 32.6.47 24.17-.09 32.6-.47 14.17-1.72 19.2-3.68a40.45 40.45 0 0 0 23.12-23.12c2-5 3.29-10.78 3.68-19.2s.47-11.13.47-32.6-.09-24.17-.47-32.6-1.72-14.17-3.68-19.2a40.45 40.45 0 0 0-23.12-23.12c-5-2-10.78-3.29-19.2-3.68s-11.13-.47-32.6-.47z"/><path d="M157 116.4a40.6 40.6 0 1 0 40.6 40.6 40.59 40.59 0 0 0-40.6-40.6zm0 67a26.36 26.36 0 1 1 26.36-26.4A26.36 26.36 0 0 1 157 183.36z"/><circle cx="199.21" cy="114.79" r="9.49" transform="rotate(-22.5 199.207 114.778)"/></svg>