<svg xmlns="http://www.w3.org/2000/svg" viewBox="0 0 612 612"><path d="M437.22 245.16c0-3.09-.06-6.15-.2-9.18a139 139 0 0 0 33.75-36.27 129.68 129.68 0 0 1-38.84 10.62 69.32 69.32 0 0 0 29.74-38.83 129.79 129.79 0 0 1-42.92 16.55 67.27 67.27 0 0 0-49.35-23.28c-37.34-.61-67.6 30.93-67.6 70.46a75 75 0 0 0 1.75 16.33c-56.22-3.62-106-32.88-139.37-77a74.9 74.9 0 0 0-9.18 36.16c0 25 11.93 47.29 30.07 60.42a64.72 64.72 0 0 1-30.63-9.37v.92c0 35 23.32 64.31 54.25 71.16a64.47 64.47 0 0 1-17.81 2.42 62 62 0 0 1-12.71-1.39c8.6 28.68 33.58 49.62 63.15 50.32-23.15 19.19-52.3 30.65-84 30.57a128.28 128.28 0 0 1-16.13-1 182.37 182.37 0 0 0 103.65 32.49c124.39 0 192.38-108.21 192.38-202.1z"/><path d="M612 306C612 137 475 0 306 0S0 137 0 306s137 306 306 306 306-137 306-306zm-584.18 0C27.82 152.36 152.36 27.82 306 27.82S584.18 152.36 584.18 306 459.64 584.18 306 584.18 27.82 459.64 27.82 306z"/></svg>