<svg xmlns="http://www.w3.org/2000/svg" viewBox="0 0 304.5 472.7"><path d="M274.7 0H30A30 30 0 0 0 0 29.9v412.9a29.92 29.92 0 0 0 29.9 29.9h244.7a29.92 29.92 0 0 0 29.9-29.9V29.9A29.77 29.77 0 0 0 274.7 0zM15 75.2h274.6v312.7H15zM30 15h244.7a14.94 14.94 0 0 1 14.9 14.9v35.3H15V29.9A15 15 0 0 1 30 15zm244.7 442.8H30a14.94 14.94 0 0 1-14.9-14.9v-45h274.6v45a15.09 15.09 0 0 1-15 14.9z"/><path d="M152.3 404.6a24.6 24.6 0 1 0 24.6 24.6 24.65 24.65 0 0 0-24.6-24.6zm0 39.1a14.6 14.6 0 1 1 14.6-14.6 14.62 14.62 0 0 1-14.6 14.6zm-34-396.1h68a5 5 0 0 0 0-10h-68a5 5 0 0 0 0 10zm-18 0a4.69 4.69 0 0 0 3.5-1.5 5.09 5.09 0 0 0 1.5-3.5 4.69 4.69 0 0 0-1.5-3.5 5.09 5.09 0 0 0-3.5-1.5 4.69 4.69 0 0 0-3.5 1.5 5.09 5.09 0 0 0-1.5 3.5 5.13 5.13 0 0 0 5 5z"/></svg>