<svg id="icon-phone" xmlns="http://www.w3.org/2000/svg" viewBox="0 0 304.5 472.7"><title>icon-phone</title><path d="M358.8,0H114.1a30,30,0,0,0-30,29.9V442.8A29.92,29.92,0,0,0,114,472.7H358.7a29.92,29.92,0,0,0,29.9-29.9V29.9A29.77,29.77,0,0,0,358.8,0ZM99.1,75.2H373.7V387.9H99.1Zm15-60.2H358.8a14.94,14.94,0,0,1,14.9,14.9V65.2H99.1V29.9A15,15,0,0,1,114.1,15ZM358.8,457.8H114.1a14.94,14.94,0,0,1-14.9-14.9v-45H373.8v45A15.09,15.09,0,0,1,358.8,457.8Z" transform="translate(-84.1)"/><path d="M236.4,404.6A24.6,24.6,0,1,0,261,429.2,24.65,24.65,0,0,0,236.4,404.6Zm0,39.1A14.6,14.6,0,1,1,251,429.1,14.62,14.62,0,0,1,236.4,443.7Z" transform="translate(-84.1)"/><path d="M202.4,47.6h68a5,5,0,0,0,0-10h-68a5,5,0,0,0,0,10Z" transform="translate(-84.1)"/><path d="M184.4,47.6a4.69,4.69,0,0,0,3.5-1.5,5.09,5.09,0,0,0,1.5-3.5,4.69,4.69,0,0,0-1.5-3.5,5.09,5.09,0,0,0-3.5-1.5,4.69,4.69,0,0,0-3.5,1.5,5.09,5.09,0,0,0-1.5,3.5,5.13,5.13,0,0,0,5,5Z" transform="translate(-84.1)"/></svg>