<svg id="icon-map-pin" xmlns="http://www.w3.org/2000/svg" viewBox="0 0 38.34 54.8"><title>icon-map-pin</title><path d="M27.6,12a7,7,0,1,0,7,7A7,7,0,0,0,27.6,12Zm0,12a5,5,0,1,1,5-5A5,5,0,0,1,27.6,24Z" transform="translate(-8.2)"/><path d="M40.9,5.6A19,19,0,0,0,27.4,0,19.4,19.4,0,0,0,13.8,5.6c-6.7,6.7-7.5,19.3-1.8,27L27.4,54.8,42.7,32.6C48.5,24.9,47.6,12.3,40.9,5.6Zm.2,25.8L27.4,51.2,13.6,31.4C8.4,24.5,9.2,13.1,15.2,7A17.14,17.14,0,0,1,39.4,7C45.6,13.1,46.3,24.5,41.1,31.4Z" transform="translate(-8.2)"/></svg>